PathFileType	4	(X/Y/Z)	c:/Users/goper/Files/vsCode/490R/osim_files/A01/A01_Fast_03.trc
DataRate	CameraRate	NumFrames	NumMarkers	Units                	OrigDataRate	OrigDataStartFrame	OrigNumFrames
120.00	120.00	6	36	mm	120.0	722	1154
                Frame#	Time	Mobility_markerset:LPSIS			Mobility_markerset:LASIS			Mobility_markerset:LTH1			Mobility_markerset:LTH2			Mobility_markerset:LTH3			Mobility_markerset:LTH4			Mobility_markerset:LLFE			Mobility_markerset:LMFE			Mobility_markerset:LSH1			Mobility_markerset:LSH2			Mobility_markerset:LSH3			Mobility_markerset:LSH4			Mobility_markerset:LLMAL			Mobility_markerset:LMMAL			Mobility_markerset:LCAL			Mobility_markerset:LMTP5			Mobility_markerset:LTOE			Mobility_markerset:LMTP1			Mobility_markerset:RPSIS			Mobility_markerset:RASIS			Mobility_markerset:RTH1			Mobility_markerset:RTH2			Mobility_markerset:RTH3			Mobility_markerset:RTH4			Mobility_markerset:RLFE			Mobility_markerset:RMFE			Mobility_markerset:RSH1			Mobility_markerset:RSH2			Mobility_markerset:RSH3			Mobility_markerset:RSH4			Mobility_markerset:RLMAL			Mobility_markerset:RMMAL			Mobility_markerset:RCAL			Mobility_markerset:RMTP1			Mobility_markerset:RTOE			Mobility_markerset:RMTP5		
		X1	Y1	Z1	X2	Y2	Z2	X3	Y3	Z3	X4	Y4	Z4	X5	Y5	Z5	X6	Y6	Z6	X7	Y7	Z7	X8	Y8	Z8	X9	Y9	Z9	X10	Y10	Z10	X11	Y11	Z11	X12	Y12	Z12	X13	Y13	Z13	X14	Y14	Z14	X15	Y15	Z15	X16	Y16	Z16	X17	Y17	Z17	X18	Y18	Z18	X19	Y19	Z19	X20	Y20	Z20	X21	Y21	Z21	X22	Y22	Z22	X23	Y23	Z23	X24	Y24	Z24	X25	Y25	Z25	X26	Y26	Z26	X27	Y27	Z27	X28	Y28	Z28	X29	Y29	Z29	X30	Y30	Z30	X31	Y31	Z31	X32	Y32	Z32	X33	Y33	Z33	X34	Y34	Z34	X35	Y35	Z35	X36	Y36	Z36

722	6.00833	0.00000	0.00000	0.00000	-3596.52759	985.80573	507.83008	-3426.94116	669.39508	534.18805	-3428.92310	622.53650	527.37842	-3486.23901	663.36548	544.50848	-3480.07397	618.76544	532.12708	-3449.13574	501.20795	506.06207	0.00000	0.00000	0.00000	-3316.44775	393.46619	476.98428	-3288.65674	357.28992	478.28271	-3361.34521	351.32840	479.37909	0.00000	0.00000	0.00000	-3149.82690	149.82820	443.68958	-3148.31763	155.09807	355.41217	-3067.87769	165.04329	391.97784	-3239.69556	41.85946	470.91278	-3274.20776	58.23792	404.39017	0.00000	0.00000	0.00000	-3406.00342	1018.72363	266.09540	-3652.40137	975.74896	255.61012	-3683.30249	691.22131	156.19124	-3696.87769	650.70380	157.79564	-3625.06079	665.87592	152.69537	-3651.13599	626.69104	156.46220	-3745.24243	516.91058	203.30653	-3712.77759	516.10248	325.72891	-3707.74585	305.49164	168.95506	-3719.23291	260.44406	167.83067	-3767.16064	315.47604	179.63408	-3772.00171	270.47095	176.14014	-3775.19775	90.45125	194.52896	-3779.95850	108.44557	281.69687	-3716.07715	64.79975	231.39914	-3910.65845	61.42028	314.43930	-3952.27979	76.48871	277.76712	-3915.52466	39.74836	200.17253
723	6.01667	0.00000	0.00000	0.00000	-3606.78174	985.46234	506.77386	-3441.12622	668.06293	534.47986	-3443.95605	621.17566	528.10803	-3500.50244	663.00079	545.14954	-3494.94019	618.15051	533.07922	0.00000	0.00000	0.00000	0.00000	0.00000	0.00000	-3330.04736	395.65295	477.32166	0.00000	0.00000	0.00000	-3373.20068	352.37726	480.16687	-3336.29346	324.73868	479.19464	-3153.99756	157.71881	441.06100	-3156.16626	161.92551	354.05402	-3075.92432	175.21120	389.45459	-3240.45898	43.51286	470.61850	-3275.79492	58.70608	404.17575	0.00000	0.00000	0.00000	-3415.78882	1020.66400	265.88815	-3662.70093	975.69531	255.15094	-3692.32300	693.20709	154.39667	-3706.04077	652.60449	156.25044	-3634.49634	666.75757	151.12473	-3660.16943	628.35895	155.20409	-3754.33374	516.83002	203.46526	-3723.42383	519.54559	325.10388	-3712.22534	306.23065	168.45163	-3722.94629	260.82416	167.62468	-3771.86548	315.25323	179.26030	-3776.02002	270.19803	176.05386	-3775.59814	90.82715	194.87947	-3781.18677	108.63191	282.02704	-3716.38818	65.20427	231.55467	-3910.97559	59.93451	314.81851	-3952.78125	74.49938	278.37799	-3915.54102	38.69164	199.85587
724	6.02500	0.00000	0.00000	0.00000	-3616.62085	985.33521	506.08151	-3455.65967	666.88495	534.87518	-3458.76123	619.60699	528.51868	-3515.06274	662.87512	546.06470	-3510.23145	617.80267	534.34369	0.00000	0.00000	0.00000	0.00000	0.00000	0.00000	-3343.28027	398.41806	477.18613	-3313.44824	363.81488	477.81488	-3385.66870	353.70224	480.71039	-3348.47339	327.03311	479.63989	-3161.54175	164.87456	438.52234	-3165.10645	168.88846	351.98535	-3084.79688	186.20824	385.47879	-3241.42480	45.65173	470.00226	-3279.06079	58.41723	404.16669	0.00000	0.00000	0.00000	-3425.80078	1022.09558	266.19885	-3673.17822	976.48523	254.86674	-3701.21118	695.05457	153.20055	-3715.30615	654.44604	155.65988	-3643.61572	667.98846	149.59511	-3669.23804	629.89136	154.37924	-3762.21167	516.99170	203.76151	-3734.93896	523.23065	324.53180	-3716.14648	307.32300	168.51099	-3726.93994	261.94150	167.36180	-3776.07837	315.35855	179.05252	-3779.36328	270.19968	176.09698	-3776.16797	91.13066	195.70226	-3781.81543	108.81782	282.14981	-3716.77661	65.58987	231.67346	-3911.29419	58.50322	315.11218	-3953.26245	72.38820	278.71674	-3915.85791	38.30224	199.85393
725	6.03333	0.00000	0.00000	0.00000	-3626.09888	985.45496	505.60324	-3470.59766	665.70142	535.44031	-3474.49609	618.26410	529.47437	-3529.81787	662.86139	547.19507	-3526.03394	617.72552	535.75177	0.00000	0.00000	0.00000	0.00000	0.00000	0.00000	-3358.22339	401.03015	477.09317	-3326.96313	367.72046	477.37039	-3398.70361	355.41675	481.50912	-3361.12109	329.43304	479.90561	-3169.74048	172.20341	435.50168	-3174.62329	175.86331	349.23569	-3095.19824	197.37369	381.19122	-3242.47534	48.45323	468.93646	-3285.54443	56.53696	404.38327	-3266.86279	51.25906	370.78989	-3435.26147	1024.23743	266.62558	-3683.35986	977.82214	254.58867	-3708.34375	695.78210	153.21396	0.00000	0.00000	0.00000	-3652.48584	668.83893	148.00818	-3677.67773	631.15509	153.78671	-3769.13623	517.87756	203.84874	-3747.21289	526.48938	323.58762	-3719.71094	308.68048	168.94066	-3729.74268	263.04510	167.84387	-3779.89941	315.64450	178.84062	-3782.36719	270.36755	176.04950	-3776.71411	91.39321	196.04141	-3782.00610	108.74992	282.19034	0.00000	0.00000	0.00000	-3911.63135	57.29918	315.36148	-3953.74829	70.72209	279.10742	-3916.11768	37.73095	199.69478
726	6.04167	0.00000	0.00000	0.00000	-3635.09644	985.96161	505.23999	-3485.49243	664.55121	535.98340	-3490.81641	617.19000	530.59174	-3544.82788	663.10120	548.51593	-3542.17969	617.79376	537.49695	0.00000	0.00000	0.00000	-3446.62598	442.56882	459.28021	-3372.93359	404.00961	476.65094	-3340.85205	371.79498	476.47174	-3412.80225	356.78931	482.53452	-3375.14282	332.66791	479.61899	-3178.41602	179.51454	432.36523	-3185.86328	182.83600	345.87659	-3106.72437	208.56862	376.07095	-3243.62061	52.15829	467.46640	-3289.36401	56.22714	404.10767	-3270.84692	52.88554	369.71817	-3444.72681	1026.64026	267.21085	-3693.34985	979.87750	254.41164	-3717.92896	697.60046	152.09303	0.00000	0.00000	0.00000	-3660.74438	669.44934	146.67137	-3685.57617	631.58966	154.22787	-3775.09253	518.85748	203.51390	0.00000	0.00000	0.00000	-3723.04102	310.01459	169.28459	-3732.26904	264.20056	168.16678	-3783.42603	316.08813	178.67468	-3785.21045	270.78067	175.98647	-3777.44629	91.62207	196.32040	-3782.50659	109.09338	282.28073	-3717.49634	66.46132	231.77031	-3911.87158	56.24976	315.64542	-3954.14429	69.31145	279.45471	-3916.40112	37.39304	199.61758
727	6.05000	0.00000	0.00000	0.00000	-3643.73022	986.99683	504.95590	-3501.01904	663.33594	536.77686	-3507.56714	616.01190	531.89294	-3560.14648	663.53638	549.98950	-3558.84619	618.09869	539.37280	0.00000	0.00000	0.00000	-3457.87744	441.53571	458.27524	-3387.15479	407.20801	475.76556	-3354.96069	375.90067	475.21365	-3426.90454	358.25687	483.66940	-3387.79199	335.77029	479.35675	-3187.75635	187.49025	428.47195	-3198.31567	190.40981	342.40366	-3119.32690	219.67479	370.43701	-3245.69604	57.35986	465.69223	-3293.21411	58.12988	403.62833	-3276.10791	55.63119	368.47473	-3453.93970	1029.02100	267.77289	-3702.89136	982.60077	254.47810	-3725.53931	698.34222	151.55000	0.00000	0.00000	0.00000	-3668.29517	670.11127	145.46822	-3692.62256	632.29474	154.15704	-3780.41772	519.57379	203.03418	-3768.86060	529.41620	318.11133	-3726.16162	310.97919	169.30638	-3734.88110	265.00702	168.32001	-3786.64966	316.45410	178.67349	-3787.79956	271.04202	175.99196	-3777.97046	91.90189	196.65198	-3782.95728	109.21483	282.51407	-3717.78101	66.84505	231.93779	-3912.17700	55.32401	315.97968	-3954.47852	68.11427	279.92624	-3916.69922	37.24656	199.61284
